<svg width="165" height="83" viewBox="0 0 165 83" fill="none" xmlns="http://www.w3.org/2000/svg">
<path d="M37.2574 4.24264C39.6005 1.8995 43.3995 1.8995 45.7426 4.24264L78.7574 37.2574C81.1005 39.6005 81.1005 43.3995 78.7574 45.7426L45.7426 78.7574C43.3995 81.1005 39.6005 81.1005 37.2574 78.7574L4.24264 45.7426C1.8995 43.3995 1.8995 39.6005 4.24264 37.2574L37.2574 4.24264Z" fill="#65DAFF"/>
<path d="M29.456 33.92V38.464H36.784V42.688H29.456V47.616H37.744V52H23.984V29.536H37.744V33.92H29.456ZM41.4885 43.04C41.4885 41.2053 41.8298 39.5947 42.5125 38.208C43.2165 36.8213 44.1658 35.7547 45.3605 35.008C46.5552 34.2613 47.8885 33.888 49.3605 33.888C50.5338 33.888 51.6005 34.1333 52.5605 34.624C53.5418 35.1147 54.3098 35.776 54.8645 36.608V28.32H60.3365V52H54.8645V49.44C54.3525 50.2933 53.6165 50.976 52.6565 51.488C51.7178 52 50.6192 52.256 49.3605 52.256C47.8885 52.256 46.5552 51.8827 45.3605 51.136C44.1658 50.368 43.2165 49.2907 42.5125 47.904C41.8298 46.496 41.4885 44.8747 41.4885 43.04ZM54.8645 43.072C54.8645 41.7067 54.4805 40.6293 53.7125 39.84C52.9658 39.0507 52.0485 38.656 50.9605 38.656C49.8725 38.656 48.9445 39.0507 48.1765 39.84C47.4298 40.608 47.0565 41.6747 47.0565 43.04C47.0565 44.4053 47.4298 45.4933 48.1765 46.304C48.9445 47.0933 49.8725 47.488 50.9605 47.488C52.0485 47.488 52.9658 47.0933 53.7125 46.304C54.4805 45.5147 54.8645 44.4373 54.8645 43.072ZM83.2073 34.144V52H77.7353V49.568C77.1806 50.3573 76.4233 50.9973 75.4633 51.488C74.5246 51.9573 73.4793 52.192 72.3273 52.192C70.9619 52.192 69.7566 51.8933 68.7113 51.296C67.6659 50.6773 66.8553 49.792 66.2793 48.64C65.7033 47.488 65.4153 46.1333 65.4153 44.576V34.144H70.8553V43.84C70.8553 45.0347 71.1646 45.9627 71.7833 46.624C72.4019 47.2853 73.2339 47.616 74.2793 47.616C75.3459 47.616 76.1886 47.2853 76.8073 46.624C77.4259 45.9627 77.7353 45.0347 77.7353 43.84V34.144H83.2073ZM119.33 29.536L113.474 52H106.85L103.266 37.216L99.5537 52H92.9297L87.2337 29.536H93.0897L96.3217 45.888L100.322 29.536H106.338L110.178 45.888L113.442 29.536H119.33ZM140.186 42.784C140.186 43.296 140.154 43.8293 140.09 44.384H127.706C127.791 45.4933 128.143 46.3467 128.762 46.944C129.402 47.52 130.181 47.808 131.098 47.808C132.463 47.808 133.413 47.232 133.946 46.08H139.77C139.471 47.2533 138.927 48.3093 138.138 49.248C137.37 50.1867 136.399 50.9227 135.226 51.456C134.053 51.9893 132.741 52.256 131.29 52.256C129.541 52.256 127.983 51.8827 126.618 51.136C125.253 50.3893 124.186 49.3227 123.418 47.936C122.65 46.5493 122.266 44.928 122.266 43.072C122.266 41.216 122.639 39.5947 123.386 38.208C124.154 36.8213 125.221 35.7547 126.586 35.008C127.951 34.2613 129.519 33.888 131.29 33.888C133.018 33.888 134.554 34.2507 135.898 34.976C137.242 35.7013 138.287 36.736 139.034 38.08C139.802 39.424 140.186 40.992 140.186 42.784ZM134.586 41.344C134.586 40.4053 134.266 39.6587 133.626 39.104C132.986 38.5493 132.186 38.272 131.226 38.272C130.309 38.272 129.53 38.5387 128.89 39.072C128.271 39.6053 127.887 40.3627 127.738 41.344H134.586ZM149.825 36.672C150.337 35.84 151.073 35.168 152.033 34.656C152.993 34.144 154.091 33.888 155.329 33.888C156.801 33.888 158.134 34.2613 159.329 35.008C160.523 35.7547 161.462 36.8213 162.145 38.208C162.849 39.5947 163.201 41.2053 163.201 43.04C163.201 44.8747 162.849 46.496 162.145 47.904C161.462 49.2907 160.523 50.368 159.329 51.136C158.134 51.8827 156.801 52.256 155.329 52.256C154.07 52.256 152.971 52.0107 152.033 51.52C151.094 51.008 150.358 50.336 149.825 49.504V52H144.353V28.32H149.825V36.672ZM157.633 43.04C157.633 41.6747 157.249 40.608 156.481 39.84C155.734 39.0507 154.806 38.656 153.697 38.656C152.609 38.656 151.681 39.0507 150.913 39.84C150.166 40.6293 149.793 41.7067 149.793 43.072C149.793 44.4373 150.166 45.5147 150.913 46.304C151.681 47.0933 152.609 47.488 153.697 47.488C154.785 47.488 155.713 47.0933 156.481 46.304C157.249 45.4933 157.633 44.4053 157.633 43.04Z" fill="#113C49"/>
</svg>
